#!OML:ASF G:\JayActor3\Patient Classification 1\Patient 1\Session 6\male.ASF
:FULLY-SPECIFIED
:DEGREES
2039
root -4.14196 15.5572 -1.51076 570.792 -76.2992 -545.322
lowerback 38.4228 -0.3175 1.57599
upperback 14.1881 -1.97499 0.503412
thorax -3.07644 -1.72466 0.440682
lowerneck 3.66878 -5.32531 -3.94498
upperneck -35.1822 -5.9156 14.9265
head -11.3229 -5.20695 7.20065
rclavicle -2.41523e-014 -3.96575e-014
rhumerus -25.8732 9.49611 -81.091
rradius 83.7298
rwrist 9.06486
rhand -44.6392 0.923864
rfingers 7.12502
rthumb -17.4364 -28.3141
lclavicle -2.41523e-014 -3.96575e-014
lhumerus -20.0175 -9.33181 69.1743
lradius 88.5756
lwrist 21.2937
lhand -24.8931 8.80679
lfingers 7.12502
lthumb 1.61479 38.7804
rfemur -64.0814 -8.19496 24.1841
rtibia 62.094
rfoot -23.3633 -13.5902
rtoes -0.348175
lfemur -65.2878 13.2421 -26.7268
ltibia 50.3402
lfoot -8.65681 2.55651
ltoes 0.548738
2040
root -4.11774 15.5582 -1.52109 570.927 -76.3354 -545.48
lowerback 38.3757 -0.338006 1.59725
upperback 14.1574 -1.98172 0.543549
thorax -3.09425 -1.72631 0.473859
lowerneck 3.64243 -5.32251 -3.94057
upperneck -35.24 -5.91634 14.9279
head -11.3412 -5.21252 7.20626
rclavicle 1.47101e-014 -3.1234e-014
rhumerus -25.8182 9.44518 -81.075
rradius 83.7236
rwrist 9.06387
rhand -44.648 0.961543
rfingers 7.12502
rthumb -17.4449 -28.2757
lclavicle 1.47101e-014 -3.1234e-014
lhumerus -20.236 -8.90316 69.3849
lradius 88.4733
lwrist 21.3139
lhand -25.0692 8.76121
lfingers 7.12502
lthumb 1.44473 38.7361
rfemur -64.0981 -8.15438 24.2003
rtibia 62.0182
rfoot -23.3579 -13.6585
rtoes -0.170992
lfemur -65.3917 13.2487 -26.7088
ltibia 50.42
lfoot -8.55753 2.52459
ltoes 0.116342
2041
root -4.0939 15.5596 -1.53025 570.983 -76.3733 -545.546
lowerback 38.3268 -0.362446 1.62255
upperback 14.1265 -1.99209 0.583061
thorax -3.11161 -1.72959 0.505505
lowerneck 3.6212 -5.31976 -3.93078
upperneck -35.3006 -5.91599 14.9328
head -11.362 -5.21923 7.21298
rclavicle -2.11706e-014 -8.15514e-014
rhumerus -25.7533 9.4028 -81.067
rradius 83.7157
rwrist 9.05711
rhand -44.6672 1.0317
rfingers 7.12502
rthumb -17.4634 -28.2039
lclavicle -2.11706e-014 -8.15514e-014
lhumerus -20.4399 -8.48929 69.5695
lradius 88.3972
lwrist 21.3191
lhand -25.2047 8.74237
lfingers 7.12502
lthumb 1.31387 38.7181
rfemur -64.1157 -8.10549 24.234
rtibia 61.9309
rfoot -23.3408 -13.7224
rtoes -0.00210238
lfemur -65.5227 13.2621 -26.6743
ltibia 50.5529
lfoot -8.5013 2.47128
ltoes -0.374805
2042
root -4.07042 15.5616 -1.53824 570.945 -76.4127 -545.513
lowerback 38.2837 -0.390288 1.65095
upperback 14.0968 -2.00624 0.622625
thorax -3.12957 -1.73488 0.537021
lowerneck 3.59982 -5.31714 -3.9164
upperneck -35.359 -5.91432 14.9431
head -11.382 -5.22693 7.22074
rclavicle -4.64162e-014 -9.86469e-015
rhumerus -25.6793 9.37347 -81.0619
rradius 83.7123
rwrist 9.04292
rhand -44.6917 1.1226
rfingers 7.12502
rthumb -17.4869 -28.1109
lclavicle -4.64162e-014 -9.86469e-015
lhumerus -20.6272 -8.10976 69.7213
lradius 88.3529
lwrist 21.3183
lhand -25.305 8.76685
lfingers 7.12502
lthumb 1.21697 38.7431
rfemur -64.1309 -8.05476 24.2905
rtibia 61.8339
rfoot -23.3068 -13.7768
rtoes 0.134576
lfemur -65.6797 13.2891 -26.6264
ltibia 50.7569
lfoot -8.50599 2.36797
ltoes -0.930964
2043
root -4.04693 15.5635 -1.54513 570.815 -76.4535 -545.381
lowerback 38.2482 -0.421027 1.67831
upperback 14.0675 -2.02475 0.663898
thorax -3.14943 -1.74267 0.572563
lowerneck 3.58618 -5.31157 -3.90137
upperneck -35.4157 -5.90899 14.9516
head -11.4036 -5.23289 7.22785
rclavicle -1.18277e-014 2.98177e-015
rhumerus -25.5979 9.36263 -81.0564
rradius 83.7163
rwrist 9.02415
rhand -44.7155 1.22934
rfingers 7.12502
rthumb -17.5099 -28.0021
lclavicle -1.18277e-014 2.98177e-015
lhumerus -20.7956 -7.78172 69.8335
lradius 88.3433
lwrist 21.3241
lhand -25.3883 8.83054
lfingers 7.12502
lthumb 1.13654 38.8073
rfemur -64.151 -8.00628 24.3733
rtibia 61.7327
rfoot -23.2568 -13.8157
rtoes 0.260202
lfemur -65.872 13.3364 -26.5736
ltibia 51.0588
lfoot -8.59249 2.17637
ltoes -1.52596
2044
root -4.02337 15.5653 -1.55083 570.581 -76.503 -545.141
lowerback 38.2219 -0.458287 1.71654
upperback 14.0416 -2.04857 0.705801
thorax -3.16843 -1.75309 0.605117
lowerneck 3.57433 -5.30199 -3.87831
upperneck -35.4672 -5.89947 14.9504
head -11.4249 -5.23652 7.2291
rclavicle -3.75703e-014 -9.96657e-014
rhumerus -25.5098 9.36519 -81.048
rradius 83.7328
rwrist 8.99722
rhand -44.7379 1.33526
rfingers 7.12502
rthumb -17.5314 -27.8943
lclavicle -3.75703e-014 -9.96657e-014
lhumerus -20.9299 -7.52421 69.8945
lradius 88.3659
lwrist 21.3598
lhand -25.4448 8.93243
lfingers 7.12502
lthumb 1.08196 38.9094
rfemur -64.1741 -7.97042 24.4905
rtibia 61.6302
rfoot -23.1903 -13.8359
rtoes 0.364128
lfemur -66.1042 13.4068 -26.5204
ltibia 51.4896
lfoot -8.77322 1.87754
ltoes -2.16809
2045
root -3.99989 15.5669 -1.55521 570.255 -76.5507 -544.811
lowerback 38.2055 -0.497363 1.76097
upperback 14.0209 -2.07431 0.745082
thorax -3.18497 -1.76471 0.632489
lowerneck 3.57132 -5.29019 -3.85708
upperneck -35.5116 -5.8869 14.9471
head -11.4455 -5.23772 7.22938
rclavicle -1.23246e-014 5.36719e-015
rhumerus -25.4225 9.37628 -81.0337
rradius 83.7701
rwrist 8.96255
rhand -44.7674 1.43875
rfingers 7.12502
rthumb -17.5598 -27.7882
lclavicle -1.23246e-014 5.36719e-015
lhumerus -21.022 -7.35092 69.9005
lradius 88.4182
lwrist 21.4367
lhand -25.4969 9.03547
lfingers 7.12502
lthumb 1.0317 39.0127
rfemur -64.1981 -7.94709 24.6331
rtibia 61.5315
rfoot -23.1058 -13.8343
rtoes 0.441062
lfemur -66.3751 13.5102 -26.4834
ltibia 52.0799
lfoot -9.05164 1.47486
ltoes -2.87202
2046
root -3.97641 15.568 -1.55818 569.851 -76.6011 -544.405
lowerback 38.1927 -0.540408 1.81916
upperback 14.0086 -2.10247 0.779182
thorax -3.1938 -1.77737 0.647988
lowerneck 3.57481 -5.27744 -3.82855
upperneck -35.5458 -5.87369 14.9342
head -11.4642 -5.23747 7.22368
rclavicle 3.48867e-014 3.07868e-014
rhumerus -25.3373 9.38873 -81.0115
rradius 83.8302
rwrist 8.91801
rhand -44.79 1.51855
rfingers 7.12502
rthumb -17.5816 -27.7065
lclavicle 3.48867e-014 3.07868e-014
lhumerus -21.0548 -7.26762 69.8449
lradius 88.4942
lwrist 21.5503
lhand -25.5201 9.13151
lfingers 7.12502
lthumb 1.00922 39.1089
rfemur -64.2276 -7.9428 24.8011
rtibia 61.4412
rfoot -23.0103 -13.8069
rtoes 0.513244
lfemur -66.6898 13.645 -26.4712
ltibia 52.8513
lfoot -9.41339 0.994085
ltoes -3.60383
2047
root -3.95252 15.5681 -1.55957 569.42 -76.6472 -543.97
lowerback 38.1739 -0.583146 1.88039
upperback 14.0038 -2.13115 0.806926
thorax -3.19266 -1.79026 0.655023
lowerneck 3.59401 -5.26486 -3.80153
upperneck -35.5682 -5.85997 14.918
head -11.4815 -5.23518 7.21637
rclavicle 1.96797e-014 2.58669e-014
rhumerus -25.2609 9.39009 -80.9889
rradius 83.9113
rwrist 8.87803
rhand -44.804 1.56501
rfingers 7.12502
rthumb -17.595 -27.6588
lclavicle 1.96797e-014 2.58669e-014
lhumerus -21.02 -7.26875 69.7282
lradius 88.5901
lwrist 21.6917
lhand -25.5083 9.20076
lfingers 7.12502
lthumb 1.02064 39.1781
rfemur -64.2749 -7.95407 24.9791
rtibia 61.3653
rfoot -22.9055 -13.7585
rtoes 0.569713
lfemur -67.0546 13.8075 -26.5
ltibia 53.8107
lfoot -9.82697 0.484728
ltoes -4.32778
2048
root -3.92801 15.5671 -1.55939 569.042 -76.6772 -543.593
lowerback 38.1538 -0.619314 1.92214
upperback 14.0085 -2.16115 0.82496
thorax -3.18078 -1.80455 0.662053
lowerneck 3.62785 -5.25136 -3.7771
upperneck -35.5765 -5.84426 14.898
head -11.4963 -5.22974 7.20692
rclavicle 1.88845e-015 -2.22142e-014
rhumerus -25.1935 9.38178 -80.9616
rradius 84.0129
rwrist 8.83943
rhand -44.8127 1.58159
rfingers 7.12502
rthumb -17.6034 -27.6415
lclavicle 1.88845e-015 -2.22142e-014
lhumerus -20.9059 -7.33622 69.5528
lradius 88.7031
lwrist 21.8507
lhand -25.4432 9.23757
lfingers 7.12502
lthumb 1.08354 39.2146
rfemur -64.3398 -7.97633 25.1389
rtibia 61.3091
rfoot -22.7946 -13.6938
rtoes 0.622877
lfemur -67.4546 13.9932 -26.5887
ltibia 54.9444
lfoot -10.2519 0.00614625
ltoes -4.97577
2049
root -3.90305 15.565 -1.55763 568.703 -76.694 -543.26
lowerback 38.1303 -0.648528 1.94846
upperback 14.0224 -2.19034 0.83629
thorax -3.15775 -1.81919 0.669344
lowerneck 3.67878 -5.23777 -3.75866
upperneck -35.5664 -5.82694 14.8769
head -11.5068 -5.22083 7.19659
rclavicle -2.16675e-014 2.88735e-014
rhumerus -25.1349 9.35933 -80.9222
rradius 84.1246
rwrist 8.79774
rhand -44.8254 1.64008
rfingers 7.12502
rthumb -17.6156 -27.5819
lclavicle -2.16675e-014 2.88735e-014
lhumerus -20.7067 -7.45234 69.3252
lradius 88.8295
lwrist 22.0067
lhand -25.3216 9.23323
lfingers 7.12502
lthumb 1.20099 39.2096
rfemur -64.4189 -8.0061 25.2825
rtibia 61.2749
rfoot -22.6867 -13.6165
rtoes 0.672429
lfemur -67.8753 14.1947 -26.7238
ltibia 56.2214
lfoot -10.6576 -0.37817
ltoes -5.4818
2050
root -3.87787 15.5615 -1.55439 568.411 -76.6947 -542.981
lowerback 38.1017 -0.666659 1.95509
upperback 14.0463 -2.21518 0.842116
thorax -3.12221 -1.83271 0.679058
lowerneck 3.73695 -5.22506 -3.74458
upperneck -35.5286 -5.80895 14.8553
head -11.5073 -5.20868 7.18353
rclavicle -7.35503e-015 1.85864e-014
rhumerus -25.0855 9.31722 -80.8698
rradius 84.2455
rwrist 8.76021
rhand -44.8508 1.73364
rfingers 7.12502
rthumb -17.6401 -27.4862
lclavicle -7.35503e-015 1.85864e-014
lhumerus -20.4143 -7.60026 69.0543
lradius 88.9608
lwrist 22.1397
lhand -25.1286 9.19506
lfingers 7.12502
lthumb 1.38733 39.1703
rfemur -64.5128 -8.0373 25.4052
rtibia 61.2645
rfoot -22.5796 -13.5369
rtoes 0.6944
lfemur -68.2959 14.4038 -26.8964
ltibia 57.5908
lfoot -11.0128 -0.600502
ltoes -5.85085
2051
root -3.85264 15.5563 -1.54977 568.165 -76.6788 -542.751
lowerback 38.0665 -0.673004 1.93967
upperback 14.0802 -2.23555 0.843938
thorax -3.07338 -1.84523 0.693879
lowerneck 3.79285 -5.21166 -3.73674
upperneck -35.4574 -5.78839 14.8337
head -11.4935 -5.19202 7.16695
rclavicle -6.95746e-015 1.86858e-014
rhumerus -25.0415 9.259 -80.8042
rradius 84.3712
rwrist 8.73148
rhand -44.8869 1.84023
rfingers 7.12502
rthumb -17.6749 -27.3764
lclavicle -6.95746e-015 1.86858e-014
lhumerus -20.0267 -7.75595 68.748
lradius 89.0958
lwrist 22.2382
lhand -24.8831 9.14945
lfingers 7.12502
lthumb 1.62451 39.123
rfemur -64.6219 -8.06417 25.5058
rtibia 61.2788
rfoot -22.4787 -13.4561
rtoes 0.714549
lfemur -68.6939 14.6129 -27.0933
ltibia 58.9914
lfoot -11.3017 -0.627764
ltoes -6.03367
2052
root -3.82839 15.55 -1.54373 567.933 -76.6494 -542.544
lowerback 38.028 -0.669953 1.91213
upperback 14.1254 -2.25132 0.842337
thorax -3.0111 -1.85657 0.709322
lowerneck 3.84858 -5.19475 -3.73228
upperneck -35.3516 -5.76142 14.8084
head -11.4663 -5.16877 7.14466
rclavicle 2.94201e-014 -2.23633e-015
rhumerus -25.0069 9.18961 -80.7195
rradius 84.5039
rwrist 8.70013
rhand -44.9326 1.93154
rfingers 7.12502
rthumb -17.7188 -27.2812
lclavicle 2.94201e-014 -2.23633e-015
lhumerus -19.5479 -7.90882 68.4145
lradius 89.2306
lwrist 22.302
lhand -24.6172 9.10447
lfingers 7.12502
lthumb 1.88128 39.0759
rfemur -64.7276 -8.09242 25.5909
rtibia 61.3135
rfoot -22.388 -13.3685
rtoes 0.726693
lfemur -69.0257 14.8144 -27.2921
ltibia 60.3482
lfoot -11.5201 -0.443291
ltoes -6.02393
2053
root -3.80541 15.5424 -1.53637 567.694 -76.6071 -542.34
lowerback 37.9854 -0.656889 1.87894
upperback 14.1832 -2.25984 0.83702
thorax -2.93365 -1.86529 0.720734
lowerneck 3.88905 -5.17561 -3.73074
upperneck -35.2092 -5.72896 14.7853
head -11.4214 -5.14036 7.11785
rclavicle -4.77083e-015 -7.98617e-014
rhumerus -24.9753 9.09758 -80.6294
rradius 84.6336
rwrist 8.67783
rhand -44.9942 2.01629
rfingers 7.12502
rthumb -17.7781 -27.191
lclavicle -4.77083e-015 -7.98617e-014
lhumerus -18.9752 -8.05236 68.0572
lradius 89.3636
lwrist 22.337
lhand -24.3739 9.08764
lfingers 7.12502
lthumb 2.11629 39.0569
rfemur -64.8313 -8.11653 25.6643
rtibia 61.3697
rfoot -22.3065 -13.2777
rtoes 0.734459
lfemur -69.268 15.0013 -27.4759
ltibia 61.5853
lfoot -11.6564 -0.0570764
ltoes -5.84162
